<svg xmlns="http://www.w3.org/2000/svg" xmlns:xlink="http://www.w3.org/1999/xlink" xmlns:sketch="http://www.bohemiancoding.com/sketch/ns" viewBox="0 0 32 40" version="1.1" x="0px" y="0px"><title>mandarin_010-smile-glare-face-avatar-emoticon</title><desc>Created with Sketch.</desc><g stroke="none" stroke-width="1" fill="none" fill-rule="evenodd" sketch:type="MSPage"><path d="M14,24.2999992 L14,24 C14,24 15,23.7553101 16,23.7553101 C17,23.7553101 18,24 18,24 L18,24.2999992 C18,24.2999992 18,26 16,26 C14,26 14,24.2999992 14,24.2999992 Z M22.5,19 C22.7761424,19 23,18.7761424 23,18.5 C23,18.2238576 22.7761424,18 22.5,18 L19,18 C18.7238576,18 18.5,18.2238576 18.5,18.5 C18.5000006,19.3284277 19.1715732,20 20,20 C20.6531094,20 21.2087289,19.5825962 21.4146471,19 L22.5,19 Z M9,19 C8.72385763,19 8.5,18.7761424 8.5,18.5 C8.5,18.2238576 8.72385763,18 9,18 L12.5,18 C12.7761424,18 13,18.2238576 13,18.5 C12.9999994,19.3284277 12.3284268,20 11.5,20 C10.8468906,20 10.2912711,19.5825962 10.0853529,19 L9,19 Z" fill="#000000" sketch:type="MSShapeGroup"/><g sketch:type="MSLayerGroup" transform="translate(-430.000000, 1.000000)" fill="#000000"><g transform="translate(432.000000, 0.000000)" sketch:type="MSShapeGroup"><path d="M20.7276783,7.27696654 C22.1975443,6.91555643 23.4051765,5.99261624 24.374274,4.69200474 C24.8117738,4.10484271 25.1717676,3.47834114 25.460588,2.85175583 C25.6348324,2.47373901 25.9715266,1.47462114 25.9715266,1.47462114 C25.9715266,1.47462114 24.9764605,1.2695529 24.5881462,1.21763288 C23.38102,1.05623263 22.1205479,1.02006721 20.9306884,1.18873727 C19.9546787,1.32709276 19.0893385,1.59818244 18.3658232,2.02690104 C16.1222748,3.35631425 14.55754,7.05214452 14.55754,9.1635742 L14.55754,10.2758908 L15.3894444,9.53752543 C16.5474681,8.50970933 17.6806482,8.02616943 20.7276783,7.27696654 Z M18.8755981,2.88720886 C19.4742332,2.53248794 20.216376,2.29999298 21.0710415,2.17883878 C22.1574592,2.02483224 23.4232627,2.05236816 24.6387883,2.24071524 C24.4618984,2.66479489 23.9650611,3.56752683 23.5723954,4.09451771 C22.731073,5.22364424 21.7068297,6.00642833 20.4889103,6.3058899 C18.083481,6.89733617 16.7711911,7.35023978 15.7117515,8.03365005 C16.0090781,6.87420635 16.9812082,4.00972844 18.8755981,2.88720886 Z" transform="translate(20.264533, 5.677053) rotate(10.000000) translate(-20.264533, -5.677053) "/><path d="M13.4804489,7.17346595 C13.604099,8.46677438 13.6258855,9.84291273 13.588818,11.0766128 C13.5830906,11.2672354 13.577402,11.4029309 13.5736935,11.4739123 C13.5592856,11.7496785 13.7711585,11.9849111 14.0469247,11.999319 C14.322691,12.0137268 14.5579236,11.801854 14.5723314,11.5260877 C14.5764129,11.4479686 14.5824093,11.3049284 14.5883669,11.1066451 C14.6265828,9.83472443 14.6041851,8.41997986 14.4759096,7.0782923 C14.2806811,5.03631738 13.8786535,3.55340289 13.1526291,2.79637048 C12.9614913,2.5970693 12.644978,2.59045157 12.4456769,2.78158936 C12.2463757,2.97272715 12.239758,3.28924046 12.4308957,3.48854163 C12.9473836,4.02708841 13.3061541,5.35044508 13.4804489,7.17346595 Z"/><path d="M1.52999997,19.691294 C1.52999997,14.441495 5.6625031,10.191294 10.7530769,10.191294 C11.8120526,10.191294 12.8459825,10.3749643 13.823281,10.7302278 C13.9336296,10.7703413 14.0545754,10.7703413 14.164924,10.7302278 C15.1422226,10.3749643 16.1761525,10.191294 17.2351282,10.191294 C22.325702,10.191294 26.4582051,14.441495 26.4582051,19.691294 C26.4582051,24.941093 22.325702,29.191294 17.2351282,29.191294 C16.1761525,29.191294 15.1422226,29.0076236 14.164924,28.6523601 C14.0545754,28.6122466 13.9336296,28.6122466 13.823281,28.6523601 C12.8459825,29.0076236 11.8120526,29.191294 10.7530769,29.191294 C5.6625031,29.191294 1.52999997,24.941093 1.52999997,19.691294 Z M13.9873166,29.6502049 C15.0250694,30.0070739 16.1181525,30.191294 17.2351282,30.191294 C22.8843691,30.191294 27.4582051,25.4871905 27.4582051,19.691294 C27.4582051,13.8953974 22.8843691,9.19129396 17.2351282,9.19129396 C16.0591318,9.19129396 15.0915415,9.37399629 13.9880342,9.72797244 C12.9541108,9.37399629 11.8654417,9.19129396 10.7530769,9.19129396 C5.10383594,9.19129396 0.529999971,13.8953974 0.529999971,19.691294 C0.529999971,25.4871905 5.10383594,30.191294 10.7530769,30.191294 C11.9290732,30.191294 13.2463267,29.9246829 13.9873166,29.6502049 Z"/></g></g></g><text x="0" y="47" fill="#000000" font-size="5px" font-weight="bold" font-family="'Helvetica Neue', Helvetica, Arial-Unicode, Arial, Sans-serif">Created by Pham Thi Dieu Linh</text><text x="0" y="52" fill="#000000" font-size="5px" font-weight="bold" font-family="'Helvetica Neue', Helvetica, Arial-Unicode, Arial, Sans-serif">from the Noun Project</text></svg>