<svg xmlns="http://www.w3.org/2000/svg" xmlns:xlink="http://www.w3.org/1999/xlink" xmlns:sketch="http://www.bohemiancoding.com/sketch/ns" viewBox="0 0 32 40" version="1.1" x="0px" y="0px"><title>grapefruit_004-smile-face-avatar-emoticon</title><desc>Created with Sketch.</desc><g stroke="none" stroke-width="1" fill="none" fill-rule="evenodd" sketch:type="MSPage"><path d="M14,21.2999992 L14,21 C14,21 15,20.7553101 16,20.7553101 C17,20.7553101 18,21 18,21 L18,21.2999992 C18,21.2999992 18,23 16,23 C14,23 14,21.2999992 14,21.2999992 Z M20,16.8999157 C20,16.8101079 20.0229525,16.6448613 20.0865336,16.4922775 C20.1707246,16.2902335 20.2835235,16.2000008 20.5,16.2000008 C20.7164765,16.2000008 20.8292754,16.2902335 20.9134664,16.4922775 C20.9770475,16.6448613 21,16.8101079 21,16.8999157 L21,17.2999153 C21,17.5760577 21.2238576,17.7999153 21.5,17.7999153 C21.7761424,17.7999153 22,17.5760577 22,17.2999153 L22,16.8999157 C22,16.6897448 21.9604525,16.4050232 21.8365336,16.1076389 C21.6082246,15.5597361 21.1585235,15.2000008 20.5,15.2000008 C19.8414765,15.2000008 19.3917754,15.5597361 19.1634664,16.1076389 C19.0395475,16.4050232 19,16.6897448 19,16.8999157 L19,17.2999153 C19,17.5760577 19.2238576,17.7999153 19.5,17.7999153 C19.7761424,17.7999153 20,17.5760577 20,17.2999153 L20,16.8999157 Z M11,16.8999157 C11,16.8101079 11.0229525,16.6448613 11.0865336,16.4922775 C11.1707246,16.2902335 11.2835235,16.2000008 11.5,16.2000008 C11.7164765,16.2000008 11.8292754,16.2902335 11.9134664,16.4922775 C11.9770475,16.6448613 12,16.8101079 12,16.8999157 L12,17.2999153 C12,17.5760577 12.2238576,17.7999153 12.5,17.7999153 C12.7761424,17.7999153 13,17.5760577 13,17.2999153 L13,16.8999157 C13,16.6897448 12.9604525,16.4050232 12.8365336,16.1076389 C12.6082246,15.5597361 12.1585235,15.2000008 11.5,15.2000008 C10.8414765,15.2000008 10.3917754,15.5597361 10.1634664,16.1076389 C10.0395475,16.4050232 10,16.6897448 10,16.8999157 L10,17.2999153 C10,17.5760577 10.2238576,17.7999153 10.5,17.7999153 C10.7761424,17.7999153 11,17.5760577 11,17.2999153 L11,16.8999157 Z" fill="#11913e" sketch:type="MSShapeGroup"/><g sketch:type="MSLayerGroup" transform="translate(-139.000000, 3.000000)" fill="#11913e"><g transform="translate(144.000000, 0.000000)" sketch:type="MSShapeGroup"><path d="M0.0999999046,14.1477638 C0.0999999046,11.0794474 1.5792611,8.33093762 3.91366568,6.47993689 C5.51081956,5.36127677 5.37808758,0.707064178 11.0031908,0.70706326 C16.6282941,0.707062338 16.928244,5.39138192 18.2885653,6.47757623 C20.5095478,8.32511272 21.9063817,11.1661587 21.9063817,14.1477638 C21.9063817,19.7216163 17.0248572,24.2401161 11.0031908,24.2401161 C4.98152445,24.2401161 0.0999999046,19.7216163 0.0999999046,14.1477638 Z M20.9063817,14.1477638 C20.9063817,11.5091567 19.6778482,8.93402155 17.6645931,7.25902275 C17.3382555,6.99844753 17.0803399,6.65688704 16.803168,6.17642694 C16.7273084,6.04492912 16.0007209,4.64669174 15.7428262,4.23112655 C14.698818,2.54883764 13.3753641,1.70706287 11.003191,1.70706326 C8.6450906,1.70706364 7.44931051,2.50912548 6.48739407,4.20638392 C6.2969676,4.54238289 5.68147737,5.78146628 5.72418924,5.69888985 C5.32323026,6.47407869 4.98458364,6.95074673 4.53497311,7.26350378 C2.36508416,8.98405645 1.0999999,11.4737079 1.0999999,14.1477638 C1.0999999,19.1513306 5.51728618,23.2401161 11.0031908,23.2401161 C16.4890955,23.2401161 20.9063817,19.1513306 20.9063817,14.1477638 Z"/><ellipse cx="11.0014491" cy="0.69129396" rx="0.681449432" ry="0.67282349"/></g></g></g><text x="0" y="47" fill="#11913e" font-size="5px" font-weight="bold" font-family="'Helvetica Neue', Helvetica, Arial-Unicode, Arial, Sans-serif">Created by Pham Thi Dieu Linh</text><text x="0" y="52" fill="#11913e" font-size="5px" font-weight="bold" font-family="'Helvetica Neue', Helvetica, Arial-Unicode, Arial, Sans-serif">from the Noun Project</text></svg>