<svg xmlns="http://www.w3.org/2000/svg" xmlns:xlink="http://www.w3.org/1999/xlink" xmlns:sketch="http://www.bohemiancoding.com/sketch/ns" viewBox="0 0 32 40" version="1.1" x="0px" y="0px"><title>peach_147-happy-face-avatar-emoticon</title><desc>Created with Sketch.</desc><g stroke="none" stroke-width="1" fill="none" fill-rule="evenodd" sketch:type="MSPage"><path d="M10.0002318,17.1280637 C9.90904622,17.1822716 9.80328846,17.2339178 9.68855597,17.2732009 C9.3376247,17.3933559 9.02619345,17.3486488 8.73392046,17.0749685 C8.59282275,16.9428466 8.3713345,16.950123 8.2392126,17.0912207 C8.1070907,17.2323184 8.11436703,17.4538066 8.25546473,17.5859285 C8.75168846,18.0505854 9.33464291,18.1342706 9.91530557,17.9354581 C9.99550606,17.9079984 10.0717971,17.8769824 10.1438611,17.8435481 C10.1501481,17.8597464 10.1566807,17.8759928 10.1634664,17.8922772 C10.3917754,18.4401799 10.8414765,18.7999153 11.5,18.7999153 C12.1585235,18.7999153 12.6082246,18.4401799 12.8365336,17.8922772 C12.9604525,17.5948928 13,17.3101713 13,17.1000004 L13,16.7000008 C13,16.4238584 12.7761424,16.2000008 12.5,16.2000008 C12.2238576,16.2000008 12,16.4238584 12,16.7000008 L12,17.1000004 C12,17.1898082 11.9770475,17.3550548 11.9134664,17.5076385 C11.8292754,17.7096826 11.7164765,17.7999153 11.5,17.7999153 C11.2835235,17.7999153 11.1707246,17.7096826 11.0865336,17.5076385 C11.0229525,17.3550548 11,17.1898082 11,17.1000004 L11,16.7000008 C11,16.4238584 10.7761424,16.2000008 10.5,16.2000008 C10.2238576,16.2000008 10,16.4238584 10,16.7000008 L10,17.1000004 C10,17.1092133 10.000076,17.1185695 10.0002318,17.1280637 Z M21.9995405,17.1396227 C22.0861252,17.1895777 22.1849327,17.2367203 22.2914801,17.2732009 C22.6424113,17.3933559 22.9538426,17.3486488 23.2461156,17.0749685 C23.3872133,16.9428466 23.6087015,16.950123 23.7408234,17.0912207 C23.8729453,17.2323184 23.865669,17.4538066 23.7245713,17.5859285 C23.2283476,18.0505854 22.6453931,18.1342706 22.0647305,17.9354581 C21.9907816,17.9101389 21.9201566,17.8817962 21.8531041,17.8513221 C21.8477563,17.864943 21.8422342,17.8785967 21.8365336,17.8922772 C21.6082246,18.4401799 21.1585235,18.7999153 20.5,18.7999153 C19.8414765,18.7999153 19.3917754,18.4401799 19.1634664,17.8922772 C19.0395475,17.5948928 19,17.3101713 19,17.1000004 L19,16.7000008 C19,16.4238584 19.2238576,16.2000008 19.5,16.2000008 C19.7761424,16.2000008 20,16.4238584 20,16.7000008 L20,17.1000004 C20,17.1898082 20.0229525,17.3550548 20.0865336,17.5076385 C20.1707246,17.7096826 20.2835235,17.7999153 20.5,17.7999153 C20.7164765,17.7999153 20.8292754,17.7096826 20.9134664,17.5076385 C20.9770475,17.3550548 21,17.1898082 21,17.1000004 L21,16.7000008 C21,16.4238584 21.2238576,16.2000008 21.5,16.2000008 C21.7761424,16.2000008 22,16.4238584 22,16.7000008 L22,17.1000004 C22,17.1129305 21.9998503,17.1261427 21.9995405,17.1396227 Z M14.4246316,22.2360832 C14.4725953,22.313235 14.5938453,22.4556475 14.7863941,22.6025372 C15.1127054,22.8514701 15.512309,23.0000681 16,23.0000681 C16.487691,23.0000681 16.8872946,22.8514701 17.2136059,22.6025372 C17.4061547,22.4556475 17.5274047,22.313235 17.5753684,22.2360832 C17.7211632,22.0015657 18.0294673,21.9296417 18.2639848,22.0754365 C18.4985024,22.2212313 18.5704264,22.5295353 18.4246316,22.7640529 C18.3171754,22.9369012 18.1191505,23.1694886 17.8201344,23.3975989 C17.3271707,23.773666 16.7183393,24.0000681 16,24.0000681 C15.2816607,24.0000681 14.6728293,23.773666 14.1798656,23.3975989 C13.8808495,23.1694886 13.6828246,22.9369012 13.5753684,22.7640529 C13.4295736,22.5295353 13.5014976,22.2212313 13.7360152,22.0754365 C13.9705327,21.9296417 14.2788368,22.0015657 14.4246316,22.2360832 Z" fill="#000000" sketch:type="MSShapeGroup"/><g sketch:type="MSLayerGroup" transform="translate(-284.000000, -672.000000)" fill="#000000"><g transform="translate(288.000000, 672.000000)" sketch:type="MSShapeGroup"><path d="M18.3620155,7.27696654 C19.8318815,6.91555643 21.0395138,5.99261624 22.0086112,4.69200474 C22.446111,4.10484271 22.8061049,3.47834114 23.0949253,2.85175583 C23.2691696,2.47373901 23.6058639,1.47462114 23.6058639,1.47462114 C23.6058639,1.47462114 22.6107977,1.2695529 22.2224835,1.21763288 C21.0153572,1.05623263 19.7548851,1.02006721 18.5650256,1.18873727 C17.5890159,1.32709276 16.7236757,1.59818244 16.0001604,2.02690104 C13.756612,3.35631425 12.1918772,7.05214452 12.1918772,9.1635742 L12.1918772,10.2758908 L13.0237816,9.53752543 C14.1818053,8.50970933 15.3149855,8.02616943 18.3620155,7.27696654 Z M16.5099353,2.88720886 C17.1085705,2.53248794 17.8507132,2.29999298 18.7053787,2.17883878 C19.7917965,2.02483224 21.0575999,2.05236816 22.2731255,2.24071524 C22.0962356,2.66479489 21.5993983,3.56752683 21.2067326,4.09451771 C20.3654102,5.22364424 19.3411669,6.00642833 18.1232475,6.3058899 C15.7178182,6.89733617 14.4055283,7.35023978 13.3460887,8.03365005 C13.6434154,6.87420635 14.6155454,4.00972844 16.5099353,2.88720886 Z" transform="translate(17.898871, 5.677053) rotate(10.000000) translate(-17.898871, -5.677053) "/><path d="M11.308687,7.17346595 C11.4323372,8.46677438 11.4541236,9.84291273 11.4170561,11.0766128 C11.4113287,11.2672354 11.4056401,11.4029309 11.4019316,11.4739123 C11.3875238,11.7496785 11.5993966,11.9849111 11.8751629,11.999319 C12.1509291,12.0137268 12.3861617,11.801854 12.4005695,11.5260877 C12.404651,11.4479686 12.4106474,11.3049284 12.416605,11.1066451 C12.4548209,9.83472443 12.4324233,8.41997986 12.3041477,7.0782923 C12.1089193,5.03631738 11.7068916,3.55340289 10.9808673,2.79637048 C10.7897295,2.5970693 10.4732162,2.59045157 10.273915,2.78158936 C10.0746138,2.97272715 10.0679961,3.28924046 10.2591339,3.48854163 C10.7756217,4.02708841 11.1343923,5.35044508 11.308687,7.17346595 Z"/><path d="M10.340091,29.3029322 C10.2658598,29.2335085 10.6271782,29.5742736 10.7243485,29.6621406 C11.205207,30.0969606 11.6507798,30.3918057 12.2588416,30.6258068 C12.5484032,30.7372392 12.8684908,30.560791 12.9288621,30.2564582 C13.0056263,29.869488 13.3459507,29.4864677 13.8970165,29.1277965 C14.1982345,28.9317433 14.2417651,28.9095319 14.9020774,28.5913852 C20.7581253,25.7698679 23.3868852,22.6754123 23.3868852,17.7962482 C23.3868852,13.9102037 22.2749027,11.6988749 19.0695985,10.1978932 C18.8312761,10.0862914 18.5878928,9.98927141 18.3398466,9.90640543 C16.6023977,9.32596747 14.7654655,9.45350082 13.0117483,10.0114583 C12.6833338,10.1159456 12.3849109,10.2280985 12.1214324,10.3407268 C11.9603641,10.4095781 12.0055452,10.399073 11.8237218,10.3313306 C11.5245421,10.2198643 11.1892835,10.1087089 10.8249907,10.0050475 C9.49711988,9.62719493 8.14666861,9.4442636 6.87071904,9.56607767 C6.04199228,9.64519567 5.27713175,9.8528536 4.59266697,10.2064904 C1.69957604,11.7012401 0.630000114,14.0668819 0.630000114,17.7962482 C0.630000114,22.6500132 4.44865703,26.9838012 9.33984088,28.6407592 C9.69810887,28.7621276 9.94640341,28.9347412 10.340091,29.3029322 Z M1.63000011,17.7962482 C1.63000011,14.4056449 2.540199,12.3925063 5.05168364,11.0949181 C5.61583538,10.8034424 6.25786213,10.6291336 6.96575626,10.5615514 C8.10026875,10.4532402 9.33322557,10.6202558 10.5513004,10.9668654 C10.889022,11.0629658 11.1993065,11.165841 11.4745931,11.2684054 C11.6374495,11.3290812 11.7506667,11.3753522 11.806791,11.4000882 C11.9450664,11.4610312 12.1034857,11.4561706 12.2377648,11.386865 C12.2824096,11.3638224 12.3764394,11.3192527 12.5144934,11.2602392 C12.7495519,11.1597595 13.0181793,11.0588043 13.3149304,10.9643909 C14.884437,10.4650413 16.5168297,10.3517086 18.0229859,10.8548775 C18.2347632,10.925627 18.4423409,11.0083737 18.6455132,11.1035154 C21.4588229,12.4209337 22.3868852,14.2665121 22.3868852,17.7962482 C22.3868852,22.2246405 20.0133022,25.0187135 14.4680197,27.6905001 C13.7593525,28.0319449 13.7045482,28.0599086 13.3515166,28.2896856 C12.5962501,28.7812646 12.406496,29.0623784 12.1748806,29.4895363 C11.9006793,29.340407 11.6591204,29.1592009 11.3950562,28.9204188 C11.3070107,28.840803 10.9570965,28.5107933 11.0231518,28.5725707 C10.5346797,28.1157338 10.1810971,27.8699242 9.66069424,27.6936303 C5.14363951,26.1634139 1.63000011,22.1757898 1.63000011,17.7962482 Z"/></g></g></g><text x="0" y="47" fill="#000000" font-size="5px" font-weight="bold" font-family="'Helvetica Neue', Helvetica, Arial-Unicode, Arial, Sans-serif">Created by Pham Thi Dieu Linh</text><text x="0" y="52" fill="#000000" font-size="5px" font-weight="bold" font-family="'Helvetica Neue', Helvetica, Arial-Unicode, Arial, Sans-serif">from the Noun Project</text></svg>