<svg xmlns="http://www.w3.org/2000/svg" xmlns:xlink="http://www.w3.org/1999/xlink" xmlns:sketch="http://www.bohemiancoding.com/sketch/ns" viewBox="0 0 32 40" version="1.1" x="0px" y="0px"><title>apple_048-speechless-face-avatar-emoticon</title><desc>Created with Sketch.</desc><g stroke="none" stroke-width="1" fill="none" fill-rule="evenodd" sketch:type="MSPage"><g sketch:type="MSLayerGroup" transform="translate(-332.000000, -191.000000)"><g transform="translate(336.000000, 192.000000)" sketch:type="MSShapeGroup"><path d="M12.4452421,5.82602841 C13.1682633,3.78865677 15.0799169,1.17801556 17.1828488,0.385529089 C17.9698185,0.0889608091 18.8690865,-0.0277456631 19.8542935,0.00548307159 C21.0553657,0.0459924331 22.2904083,0.300487092 23.4511688,0.669050595 C23.8245678,0.787611884 24.7689069,1.16235611 24.7689069,1.16235611 C24.7689069,1.16235611 24.2638329,2.08782879 24.0265937,2.42984547 C23.6333558,2.99675841 23.1700401,3.55122973 22.6372274,4.05350041 C21.4570039,5.16607069 20.1074514,5.8652862 18.5971577,5.96596613 C15.4663212,6.17467573 14.2663908,6.45409491 12.9474816,7.26520745 L12.4846613,7.54983612 C12.483987,7.90666339 12.4781003,8.25739683 12.4678698,8.59789474 C12.4619122,8.79617809 12.4559158,8.93921829 12.4518343,9.01733741 C12.4374265,9.29310366 12.2021939,9.50497651 11.9264276,9.49056866 C11.6506614,9.47616081 11.4387885,9.24092822 11.4531964,8.96516197 C11.4569049,8.89418063 11.4625934,8.75848506 11.4683209,8.56786249 C11.5053884,7.33416242 11.4836019,5.95802408 11.3599518,4.66471565 C11.185657,2.84169478 10.8268865,1.5183381 10.3103986,0.979791327 C10.1192609,0.780490154 10.1258786,0.463976839 10.3251798,0.272839052 C10.5244809,0.0817012645 10.8409942,0.0883189958 11.032132,0.287620168 C11.7581564,1.04465259 12.160184,2.52756708 12.3554124,4.56954199 C12.3949928,4.9835292 12.4244928,5.40447198 12.4452421,5.82602841 Z" fill="#11913e"/><path d="M0,15.5908074 C0,13.0657158 1.42895447,9.5116141 4.61403986,8.25263298 C7.79912524,6.99365181 9.24503319,8.70298687 11.969697,8.70298687 C14.6614848,8.70298687 15.53615,6.88229073 19.3231966,8.45081673 C23.1102431,10.019343 23.9393939,13.0443533 23.9393939,15.5908074 C23.9393939,19.3809477 20.4893811,27.3357362 14.9665564,28.8596751 C14.2300982,29.0628895 12.8980109,28.4241407 11.969697,28.4241407 C11.0413831,28.4241409 9.801991,29.2510429 8.78922421,28.8596744 C3.72229618,26.9016364 0,19.1707953 0,15.5908074 Z M11.969697,27.4241407 C13.114624,27.4241409 14.298948,27.9980769 14.7005623,27.8957004 C18.8337402,26.842102 22.9393939,20.0014085 22.9393939,15.5908074 C22.9393939,12.678471 21.8051738,10.561187 18.9405382,9.37470662 C17.207346,8.65684985 16.3570289,8.66542493 14.8371676,9.14569936 C14.7354168,9.17795943 13.47052,9.70298688 11.969697,9.70298687 C10.4688739,9.70298686 8.79460387,9.12869116 8.69676489,9.10140616 C7.18050219,8.67855604 6.31384134,8.65603248 4.98163848,9.18261752 C2.56347091,10.1384561 1,12.9565551 1,15.5908074 C1,19.5218782 5.06789469,26.3495536 9.14968136,27.9268986 C9.81964111,28.1047973 10.8247699,27.4241406 11.969697,27.4241407 Z" fill="#11913e"/></g></g><path d="M20,18.1000004 C20,18.1898082 20.0229525,18.3550548 20.0865336,18.5076385 C20.1707246,18.7096826 20.2835235,18.7999153 20.5,18.7999153 C20.7164765,18.7999153 20.8292754,18.7096826 20.9134664,18.5076385 C20.9770475,18.3550548 21,18.1898082 21,18.1000004 L21,17.7000008 C21,17.4238584 21.2238576,17.2000008 21.5,17.2000008 C21.7761424,17.2000008 22,17.4238584 22,17.7000008 L22,18.1000004 C22,18.3101713 21.9604525,18.5948928 21.8365336,18.8922772 C21.6082246,19.4401799 21.1585235,19.7999153 20.5,19.7999153 C19.8414765,19.7999153 19.3917754,19.4401799 19.1634664,18.8922772 C19.0395475,18.5948928 19,18.3101713 19,18.1000004 L19,17.7000008 C19,17.4238584 19.2238576,17.2000008 19.5,17.2000008 C19.7761424,17.2000008 20,17.4238584 20,17.7000008 L20,18.1000004 Z M11,18.1000004 C11,18.1898082 11.0229525,18.3550548 11.0865336,18.5076385 C11.1707246,18.7096826 11.2835235,18.7999153 11.5,18.7999153 C11.7164765,18.7999153 11.8292754,18.7096826 11.9134664,18.5076385 C11.9770475,18.3550548 12,18.1898082 12,18.1000004 L12,17.7000008 C12,17.4238584 12.2238576,17.2000008 12.5,17.2000008 C12.7761424,17.2000008 13,17.4238584 13,17.7000008 L13,18.1000004 C13,18.3101713 12.9604525,18.5948928 12.8365336,18.8922772 C12.6082246,19.4401799 12.1585235,19.7999153 11.5,19.7999153 C10.8414765,19.7999153 10.3917754,19.4401799 10.1634664,18.8922772 C10.0395475,18.5948928 10,18.3101713 10,18.1000004 L10,17.7000008 C10,17.4238584 10.2238576,17.2000008 10.5,17.2000008 C10.7761424,17.2000008 11,17.4238584 11,17.7000008 L11,18.1000004 Z M16,25 C16.5522847,25 17,24.5522847 17,24 C17,23.4477153 16.5522847,23 16,23 C15.4477153,23 15,23.4477153 15,24 C15,24.5522847 15.4477153,25 16,25 Z" fill="#11913e" sketch:type="MSShapeGroup"/></g><text x="0" y="47" fill="#11913e" font-size="5px" font-weight="bold" font-family="'Helvetica Neue', Helvetica, Arial-Unicode, Arial, Sans-serif">Created by Pham Thi Dieu Linh</text><text x="0" y="52" fill="#11913e" font-size="5px" font-weight="bold" font-family="'Helvetica Neue', Helvetica, Arial-Unicode, Arial, Sans-serif">from the Noun Project</text></svg>