<svg xmlns="http://www.w3.org/2000/svg" xmlns:xlink="http://www.w3.org/1999/xlink" xmlns:sketch="http://www.bohemiancoding.com/sketch/ns" viewBox="0 0 32 40" version="1.1" x="0px" y="0px"><title>orange_048-speechless-face-avatar-emoticon</title><desc>Created with Sketch.</desc><g stroke="none" stroke-width="1" fill="none" fill-rule="evenodd" sketch:type="MSPage"><path d="M20,19.1000004 C20,19.1898082 20.0229525,19.3550548 20.0865336,19.5076385 C20.1707246,19.7096826 20.2835235,19.7999153 20.5,19.7999153 C20.7164765,19.7999153 20.8292754,19.7096826 20.9134664,19.5076385 C20.9770475,19.3550548 21,19.1898082 21,19.1000004 L21,18.7000008 C21,18.4238584 21.2238576,18.2000008 21.5,18.2000008 C21.7761424,18.2000008 22,18.4238584 22,18.7000008 L22,19.1000004 C22,19.3101713 21.9604525,19.5948928 21.8365336,19.8922772 C21.6082246,20.4401799 21.1585235,20.7999153 20.5,20.7999153 C19.8414765,20.7999153 19.3917754,20.4401799 19.1634664,19.8922772 C19.0395475,19.5948928 19,19.3101713 19,19.1000004 L19,18.7000008 C19,18.4238584 19.2238576,18.2000008 19.5,18.2000008 C19.7761424,18.2000008 20,18.4238584 20,18.7000008 L20,19.1000004 Z M11,19.1000004 C11,19.1898082 11.0229525,19.3550548 11.0865336,19.5076385 C11.1707246,19.7096826 11.2835235,19.7999153 11.5,19.7999153 C11.7164765,19.7999153 11.8292754,19.7096826 11.9134664,19.5076385 C11.9770475,19.3550548 12,19.1898082 12,19.1000004 L12,18.7000008 C12,18.4238584 12.2238576,18.2000008 12.5,18.2000008 C12.7761424,18.2000008 13,18.4238584 13,18.7000008 L13,19.1000004 C13,19.3101713 12.9604525,19.5948928 12.8365336,19.8922772 C12.6082246,20.4401799 12.1585235,20.7999153 11.5,20.7999153 C10.8414765,20.7999153 10.3917754,20.4401799 10.1634664,19.8922772 C10.0395475,19.5948928 10,19.3101713 10,19.1000004 L10,18.7000008 C10,18.4238584 10.2238576,18.2000008 10.5,18.2000008 C10.7761424,18.2000008 11,18.4238584 11,18.7000008 L11,19.1000004 Z M16,26 C16.5522847,26 17,25.5522847 17,25 C17,24.4477153 16.5522847,24 16,24 C15.4477153,24 15,24.4477153 15,25 C15,25.5522847 15.4477153,26 16,26 Z" fill="#000000" sketch:type="MSShapeGroup"/><g sketch:type="MSLayerGroup" transform="translate(-332.000000, -193.000000)" fill="#000000"><g transform="translate(336.000000, 192.000000)" sketch:type="MSShapeGroup"><path d="M22,21 C22,15.4873405 17.3086894,11 11.5,11 C5.69131057,11 1,15.4873405 1,21 C1,26.5126595 5.69131057,31 11.5,31 C17.3086894,31 22,26.5126595 22,21 Z M0,21 C0,14.9248675 5.14872506,10 11.5,10 C17.8512749,10 23,14.9248675 23,21 C23,27.0751325 17.8512749,32 11.5,32 C5.14872506,32 0,27.0751325 0,21 Z"/><path d="M18.2276783,7.27696654 C19.6975443,6.91555643 20.9051765,5.99261624 21.874274,4.69200474 C22.3117738,4.10484271 22.6717676,3.47834114 22.960588,2.85175583 C23.1348324,2.47373901 23.4715266,1.47462114 23.4715266,1.47462114 C23.4715266,1.47462114 22.4764605,1.2695529 22.0881462,1.21763288 C20.88102,1.05623263 19.6205479,1.02006721 18.4306884,1.18873727 C17.4546787,1.32709276 16.5893385,1.59818244 15.8658232,2.02690104 C13.6222748,3.35631425 12.05754,7.05214452 12.05754,9.1635742 L12.05754,10.2758908 L12.8894444,9.53752543 C14.0474681,8.50970933 15.1806482,8.02616943 18.2276783,7.27696654 Z M16.3755981,2.88720886 C16.9742332,2.53248794 17.716376,2.29999298 18.5710415,2.17883878 C19.6574592,2.02483224 20.9232627,2.05236816 22.1387883,2.24071524 C21.9618984,2.66479489 21.4650611,3.56752683 21.0723954,4.09451771 C20.231073,5.22364424 19.2068297,6.00642833 17.9889103,6.3058899 C15.583481,6.89733617 14.2711911,7.35023978 13.2117515,8.03365005 C13.5090781,6.87420635 14.4812082,4.00972844 16.3755981,2.88720886 Z" transform="translate(17.764533, 5.677053) rotate(10.000000) translate(-17.764533, -5.677053) "/><path d="M10.9804489,7.17346595 C11.104099,8.46677438 11.1258855,9.84291273 11.088818,11.0766128 C11.0830906,11.2672354 11.077402,11.4029309 11.0736935,11.4739123 C11.0592856,11.7496785 11.2711585,11.9849111 11.5469247,11.999319 C11.822691,12.0137268 12.0579236,11.801854 12.0723314,11.5260877 C12.0764129,11.4479686 12.0824093,11.3049284 12.0883669,11.1066451 C12.1265828,9.83472443 12.1041851,8.41997986 11.9759096,7.0782923 C11.7806811,5.03631738 11.3786535,3.55340289 10.6526291,2.79637048 C10.4614913,2.5970693 10.144978,2.59045157 9.94567686,2.78158936 C9.74637569,2.97272715 9.73975796,3.28924046 9.93089574,3.48854163 C10.4473836,4.02708841 10.8061541,5.35044508 10.9804489,7.17346595 Z"/></g></g></g><text x="0" y="47" fill="#000000" font-size="5px" font-weight="bold" font-family="'Helvetica Neue', Helvetica, Arial-Unicode, Arial, Sans-serif">Created by Pham Thi Dieu Linh</text><text x="0" y="52" fill="#000000" font-size="5px" font-weight="bold" font-family="'Helvetica Neue', Helvetica, Arial-Unicode, Arial, Sans-serif">from the Noun Project</text></svg>